<svg width="61" height="72" viewBox="0 0 61 72" fill="none" xmlns="http://www.w3.org/2000/svg">
<path d="M60.5875 58.9061C60.5875 62.2442 59.2614 65.4456 56.9011 67.806C54.5407 70.1663 51.3393 71.4924 48.0012 71.4924C44.6631 71.4924 41.4617 70.1663 39.1013 67.806C36.741 65.4456 35.4149 62.2442 35.4149 58.9061C35.42 57.3464 35.7078 55.8006 36.2645 54.3436L21.7588 45.0297C20.0124 46.8239 17.7705 48.0564 15.3199 48.5697C12.8693 49.083 10.3212 48.8538 8.00162 47.9112C5.682 46.9687 3.6962 45.3557 2.29815 43.2786C0.900091 41.2015 0.15332 38.7546 0.15332 36.2508C0.15332 33.747 0.900091 31.3001 2.29815 29.2229C3.6962 27.1458 5.682 25.5328 8.00162 24.5903C10.3212 23.6478 12.8693 23.4185 15.3199 23.9318C17.7705 24.4451 20.0124 25.6776 21.7588 27.4718L36.2645 18.158C35.7078 16.701 35.42 15.1551 35.4149 13.5954C35.4072 10.6682 36.4175 7.82934 38.2727 5.56511C40.128 3.30087 42.7128 1.75213 45.5844 1.18415C48.456 0.616176 51.4357 1.0643 54.0133 2.45178C56.5908 3.83925 58.6057 6.07974 59.713 8.78951C60.8202 11.4993 60.9508 14.5097 60.0824 17.3052C59.214 20.1007 57.4007 22.5072 54.9531 24.1127C52.5054 25.7182 49.5756 26.4228 46.6656 26.1056C43.7556 25.7885 41.0464 24.4694 39.002 22.3744L24.4963 31.6882C25.6286 34.6245 25.6286 37.877 24.4963 40.8133L39.002 50.1272C40.7495 48.3399 42.9897 47.1135 45.4369 46.6042C47.8841 46.095 50.4275 46.3259 52.743 47.2676C55.0584 48.2093 57.041 49.8191 58.4381 51.8919C59.8352 53.9647 60.5834 56.4065 60.5875 58.9061Z" fill="#FF7795"/>
</svg>
