<svg width="75" height="93" viewBox="0 0 75 93" fill="none" xmlns="http://www.w3.org/2000/svg">
<path fill-rule="evenodd" clip-rule="evenodd" d="M50.3773 44.3762C37.0935 44.3762 26.3091 55.161 26.3091 68.4444C26.3091 81.7281 37.0939 92.5125 50.3773 92.5125C63.6606 92.5125 74.4454 81.7277 74.4454 68.4444C74.4454 55.1606 63.6606 44.3762 50.3773 44.3762ZM50.3773 48.7521C61.2455 48.7521 70.0699 57.5764 70.0699 68.4447C70.0699 79.313 61.2455 88.1374 50.3773 88.1374C39.509 88.1374 30.6846 79.313 30.6846 68.4447C30.6846 57.5764 39.509 48.7521 50.3773 48.7521ZM51.5018 53.4408C50.8102 53.0232 49.9436 53.0232 49.2527 53.4408L38.3126 60.005C37.6518 60.3992 37.2489 61.112 37.2489 61.8805V75.0089C37.2489 75.7767 37.6518 76.4903 38.3126 76.8844L49.2527 83.4486C49.9443 83.8662 50.811 83.8662 51.5018 83.4486L62.4419 76.8844C63.1028 76.4903 63.5057 75.7775 63.5057 75.0089V61.8805C63.5057 61.1127 63.1028 60.3992 62.4419 60.005L51.5018 53.4408ZM4.42701 17.7446V55.3163C4.42701 58.9397 7.36778 61.8805 10.9912 61.8805H21.9313C23.1394 61.8805 24.1197 60.9003 24.1197 59.6922C24.1197 58.4841 23.1394 57.5039 21.9313 57.5039H10.9912C9.78315 57.5039 8.80291 56.5236 8.80291 55.3155V18.1189H19.743V40.0003C19.743 40.8296 20.2112 41.5864 20.9533 41.9564C21.6947 42.3286 22.5812 42.2473 23.2442 41.7505L30.6839 36.171L38.1236 41.7505C38.7866 42.2472 39.6731 42.3278 40.4145 41.9564C41.1559 41.5864 41.6248 40.8297 41.6248 40.0003V18.1189H52.5649V40.0003C52.5649 41.2084 53.5451 42.1886 54.7532 42.1886C55.9613 42.1886 56.9415 41.2084 56.9415 40.0003V17.7457C59.4903 16.8439 61.3174 14.4109 61.3174 11.5558V7.17994C61.3174 3.55649 58.3767 0.615723 54.7532 0.615723H6.615C2.99155 0.615723 0.0507812 3.55649 0.0507812 7.17994V11.5558C0.0507812 14.4116 1.87792 16.8445 4.42668 17.7457L4.42701 17.7446ZM56.9408 7.17806V11.554C56.9408 12.762 55.9605 13.7423 54.7524 13.7423H6.61421C5.40613 13.7423 4.42589 12.762 4.42589 11.554V7.17806C4.42589 5.96999 5.40613 4.98974 6.61421 4.98974H54.7524C55.9605 4.98974 56.9408 5.96999 56.9408 7.17806Z" fill="url(#paint0_linear_21_4360)"/>
<defs>
<linearGradient id="paint0_linear_21_4360" x1="11.0341" y1="-14.459" x2="115.365" y2="13.6179" gradientUnits="userSpaceOnUse">
<stop stop-color="#FF56BB"/>
<stop offset="1" stop-color="#FF8F77"/>
</linearGradient>
</defs>
</svg>
