<svg width="70" height="91" viewBox="0 0 70 91" fill="none" xmlns="http://www.w3.org/2000/svg">
<path fill-rule="evenodd" clip-rule="evenodd" d="M35.1989 43.4057C22.085 43.4057 11.4384 54.0527 11.4384 67.1662C11.4384 80.2801 22.0854 90.9267 35.1989 90.9267C48.3125 90.9267 58.9594 80.2798 58.9594 67.1662C58.9594 54.0523 48.3125 43.4057 35.1989 43.4057ZM35.1989 47.7257C45.9283 47.7257 54.6398 56.4373 54.6398 67.1666C54.6398 77.8959 45.9283 86.6075 35.1989 86.6075C24.4696 86.6075 15.758 77.8959 15.758 67.1666C15.758 56.4373 24.4696 47.7257 35.1989 47.7257ZM36.3091 52.3545C35.6264 51.9422 34.7708 51.9422 34.0888 52.3545L23.2885 58.8348C22.6362 59.2239 22.2384 59.9276 22.2384 60.6863V73.6469C22.2384 74.4049 22.6361 75.1093 23.2885 75.4984L34.0888 81.9787C34.7715 82.391 35.6271 82.391 36.3091 81.9787L47.1094 75.4984C47.7617 75.1093 48.1595 74.4056 48.1595 73.6469V60.6863C48.1595 59.9283 47.7617 59.2239 47.1094 58.8348L36.3091 52.3545ZM54.6398 43.405V32.6048C54.6398 31.4121 53.6721 30.4444 52.4795 30.4444H50.6113L56.8002 23.0182L62.9891 30.4444H61.1209C59.9282 30.4444 58.9605 31.4121 58.9605 32.6048V54.2064C58.9605 55.399 59.9282 56.3667 61.1209 56.3667C62.3135 56.3667 63.2812 55.399 63.2812 54.2064V34.7655H67.6012C68.4394 34.7655 69.2017 34.2816 69.5582 33.5215C69.9126 32.7635 69.7984 31.8667 69.2603 31.223L58.46 18.2624C58.0499 17.7699 57.4424 17.4849 56.8009 17.4849C56.1594 17.4849 55.5526 17.7699 55.1418 18.2624L44.3415 31.223C43.8034 31.8667 43.6891 32.7628 44.0435 33.5215C44.4001 34.2816 45.1624 34.7655 46.0006 34.7655H50.3205V43.4061C50.3205 44.5988 51.2882 45.5665 52.4809 45.5665C53.6735 45.5665 54.6412 44.5988 54.6412 43.4061L54.6398 43.405ZM11.4385 54.2053V32.6036C11.4385 31.411 10.4708 30.4433 9.27812 30.4433H7.40994L13.5988 23.0171L19.7877 30.4433H17.9195C16.7269 30.4433 15.7592 31.411 15.7592 32.6036V43.4039C15.7592 44.5965 16.7269 45.5642 17.9195 45.5642C19.1121 45.5642 20.0799 44.5965 20.0799 43.4039V34.7632H24.3998C25.238 34.7632 26.0003 34.2794 26.3569 33.5193C26.7113 32.7613 26.597 31.8645 26.0589 31.2208L15.2586 18.2602C14.8485 17.7676 14.241 17.4827 13.5995 17.4827C12.958 17.4827 12.3512 17.7677 11.9404 18.2602L1.14012 31.2208C0.602037 31.8645 0.48776 32.7606 0.84214 33.5193C1.1987 34.2794 1.96101 34.7632 2.79919 34.7632H7.11914V54.2041C7.11914 55.3968 8.08686 56.3645 9.27949 56.3645C10.4721 56.3645 11.4398 55.3968 11.4398 54.2041L11.4385 54.2053ZM33.0401 39.0843V15.3238C33.0401 14.1312 32.0724 13.1635 30.8797 13.1635H29.0116L35.2004 5.73725L41.3893 13.1635H39.5211C38.3285 13.1635 37.3608 14.1312 37.3608 15.3238V39.0843C37.3608 40.277 38.3285 41.2447 39.5211 41.2447C40.7138 41.2447 41.6815 40.277 41.6815 39.0843V17.4827H46.0014C46.8397 17.4827 47.602 16.9988 47.9585 16.2387C48.3129 15.4807 48.1986 14.5839 47.6605 13.9402L36.8602 0.979636C36.4502 0.487096 35.8426 0.202148 35.2011 0.202148C34.5596 0.202148 33.9528 0.487115 33.542 0.979636L22.7417 13.9402C22.2037 14.5839 22.0894 15.48 22.4438 16.2387C22.8003 16.9988 23.5626 17.4827 24.4008 17.4827H28.7208V39.0843C28.7208 40.277 29.6885 41.2447 30.8811 41.2447C32.0737 41.2447 33.0415 40.277 33.0415 39.0843H33.0401Z" fill="url(#paint0_linear_21_4363)"/>
<defs>
<linearGradient id="paint0_linear_21_4363" x1="10.8438" y1="-14.6803" x2="108.536" y2="10.0626" gradientUnits="userSpaceOnUse">
<stop stop-color="#FF56BB"/>
<stop offset="1" stop-color="#FF8F77"/>
</linearGradient>
</defs>
</svg>
