<svg width="53" height="42" viewBox="0 0 53 42" fill="none" xmlns="http://www.w3.org/2000/svg">
<path d="M22.3748 0.882812C8.45572 0.882812 0.104492 12.0483 0.104492 17.6315C0.104492 23.2148 2.88787 27.402 8.45572 27.402C14.0236 27.402 16.808 28.797 16.808 32.9842C16.808 38.5664 20.9831 42.7535 26.551 42.7535C44.6462 42.7535 52.9963 32.9842 52.9963 23.2148C52.9952 6.46609 39.0739 0.882812 22.3748 0.882812ZM18.895 6.46609C19.3526 6.46667 19.8055 6.55736 20.228 6.73299C20.6505 6.90862 21.0343 7.16575 21.3574 7.4897C21.6805 7.81364 21.9367 8.19806 22.1113 8.621C22.2858 9.04394 22.3754 9.49712 22.3748 9.95467C22.3748 11.883 20.8167 13.4444 18.895 13.4444C16.9733 13.4444 15.4153 11.8819 15.4153 9.95467C15.4147 9.49712 15.5042 9.04394 15.6788 8.621C15.8533 8.19806 16.1095 7.81364 16.4326 7.4897C16.7558 7.16575 17.1395 6.90862 17.562 6.73299C17.9845 6.55736 18.4375 6.46667 18.895 6.46609ZM30.0285 6.46609C30.4861 6.46667 30.939 6.55736 31.3615 6.73299C31.784 6.90862 32.1678 7.16575 32.4909 7.4897C32.814 7.81364 33.0702 8.19806 33.2448 8.621C33.4193 9.04394 33.5089 9.49712 33.5083 9.95467C33.509 10.4123 33.4196 10.8656 33.2451 11.2887C33.0706 11.7118 32.8144 12.0963 32.4913 12.4204C32.1682 12.7444 31.7843 13.0017 31.3618 13.1774C30.9392 13.353 30.4862 13.4438 30.0285 13.4444C29.571 13.4436 29.118 13.3528 28.6956 13.177C28.2732 13.0013 27.8895 12.744 27.5664 12.42C27.2434 12.0959 26.9874 11.7114 26.813 11.2884C26.6385 10.8654 26.5491 10.4122 26.5499 9.95467C26.5487 9.0308 26.9145 8.14429 27.5668 7.49009C28.2192 6.83588 29.1046 6.46755 30.0285 6.46609ZM41.1642 12.0483C41.622 12.0487 42.0751 12.1393 42.4978 12.315C42.9205 12.4906 43.3045 12.7478 43.6277 13.0719C43.951 13.3959 44.2072 13.7805 44.3818 14.2037C44.5563 14.6268 44.6458 15.0802 44.6451 15.5379C44.6458 15.9956 44.5563 16.449 44.3817 16.872C44.2072 17.2951 43.9509 17.6796 43.6276 18.0036C43.3044 18.3276 42.9204 18.5847 42.4977 18.7602C42.075 18.9358 41.6219 19.0262 41.1642 19.0265C40.7067 19.0261 40.2537 18.9355 39.8312 18.7599C39.4087 18.5843 39.025 18.3272 38.7019 18.0032C38.3788 17.6792 38.1228 17.2947 37.9484 16.8717C37.774 16.4487 37.6847 15.9955 37.6856 15.5379C37.6847 15.0804 37.774 14.6271 37.9484 14.204C38.1227 13.781 38.3788 13.3964 38.7018 13.0723C39.0249 12.7483 39.4086 12.491 39.8311 12.3153C40.2536 12.1396 40.7066 12.0488 41.1642 12.0483ZM9.15211 14.8405C9.60956 14.8409 10.0624 14.9315 10.4849 15.107C10.9073 15.2825 11.291 15.5395 11.614 15.8634C11.9371 16.1873 12.1932 16.5716 12.3676 16.9945C12.5421 17.4174 12.6315 17.8705 12.6308 18.3279C12.6308 20.2562 11.0727 21.8176 9.15211 21.8176C7.23152 21.8176 5.67234 20.2551 5.67234 18.3279C5.67146 17.4041 6.03755 16.5177 6.69011 15.8637C7.34266 15.2097 8.22824 14.8416 9.15211 14.8405ZM26.5499 28.797C28.8561 28.797 30.7249 30.6702 30.7249 32.9853C30.7249 35.297 28.8561 37.1714 26.5499 37.1714C24.2436 37.1714 22.3748 35.297 22.3748 32.9853C22.3738 32.4361 22.481 31.8921 22.6903 31.3843C22.8996 30.8766 23.2069 30.4151 23.5946 30.0261C23.9823 29.6372 24.4428 29.3284 24.9499 29.1175C25.457 28.9066 26.0007 28.7977 26.5499 28.797Z" fill="#FF7F8C"/>
</svg>
