<svg width="82" height="83" viewBox="0 0 82 83" fill="none" xmlns="http://www.w3.org/2000/svg">
<path fill-rule="evenodd" clip-rule="evenodd" d="M20.6797 42.4803C9.52162 42.4803 0.462891 51.5393 0.462891 62.6971C0.462891 73.8549 9.52194 82.9139 20.6797 82.9139C31.8375 82.9139 40.8965 73.8549 40.8965 62.6971C40.8965 51.5393 31.8375 42.4803 20.6797 42.4803ZM20.6797 46.1559C29.8089 46.1559 37.2212 53.5683 37.2212 62.6974C37.2212 71.8266 29.8089 79.2389 20.6797 79.2389C11.5506 79.2389 4.13825 71.8266 4.13825 62.6974C4.13825 53.5683 11.5506 46.1559 20.6797 46.1559ZM21.6243 50.0944C21.0434 49.7436 20.3154 49.7436 19.7351 50.0944L10.5456 55.6082C9.99057 55.9393 9.6521 56.538 9.6521 57.1836V68.2112C9.6521 68.8562 9.99055 69.4555 10.5456 69.7866L19.7351 75.3004C20.316 75.6512 21.044 75.6512 21.6243 75.3004L30.8138 69.7866C31.3689 69.4555 31.7073 68.8568 31.7073 68.2112V57.1836C31.7073 56.5387 31.3689 55.9393 30.8138 55.6082L21.6243 50.0944ZM45.3007 44.0347L40.1032 49.2341C39.3863 49.951 39.3863 51.1159 40.1032 51.8328C40.8201 52.5497 41.985 52.5497 42.7019 51.8328L47.8994 46.6353C48.6182 45.9166 48.6182 44.7535 47.8994 44.0347C47.1825 43.3178 46.0193 43.3178 45.3007 44.0347ZM47.2637 16.097L39.0625 14.9247C38.4908 14.844 37.9117 15.0348 37.5037 15.4447L31.0047 21.9437C30.5357 22.4108 30.3561 23.0945 30.5321 23.7338C30.7105 24.3714 31.2157 24.8643 31.8588 25.0261L40.2471 27.1233C39.7418 28.4082 39.3025 29.7017 38.8834 31.0126C38.6742 31.6686 38.8465 32.3855 39.3339 32.8729L48.6667 42.2058C49.1535 42.6925 49.8704 42.8655 50.5271 42.6562C51.8372 42.2371 53.1313 41.7978 54.4164 41.2926L56.5135 49.6808C56.6753 50.3239 57.1676 50.8297 57.8058 51.0076C58.4452 51.1842 59.1289 51.0039 59.5959 50.535L66.095 44.0359C66.5048 43.6279 66.6962 43.0488 66.615 42.4771L65.4427 34.2759C65.6611 34.0685 65.8783 33.8568 66.095 33.6402C73.362 26.3731 78.8064 15.2839 80.6297 8.49559C81.2439 6.20941 81.4383 4.3492 81.2654 3.17681C81.1313 2.26358 80.7768 1.61066 80.3522 1.18789C79.9294 0.763281 79.2771 0.40882 78.3633 0.274661C77.191 0.101732 75.3307 0.296814 73.0445 0.910357C66.2549 2.7337 55.1671 8.17742 47.8999 15.4451C47.6833 15.6617 47.4716 15.8789 47.2642 16.0974L47.2637 16.097ZM40.1032 38.8375L35.9217 43.0191C35.2047 43.736 35.2047 44.9008 35.9217 45.6178C36.6386 46.3348 37.8034 46.3347 38.5204 45.6178L42.7019 41.4363C43.4188 40.7194 43.4188 39.5545 42.7019 38.8375C41.985 38.1206 40.8201 38.1206 40.1032 38.8375ZM62.1301 37.0788C60.6821 38.152 59.2519 39.0234 57.8218 39.7605L59.2919 45.6399L62.8445 42.0872L62.1295 37.0786L62.1301 37.0788ZM34.9029 33.64L29.7054 38.8375C28.9884 39.5545 28.9884 40.7193 29.7054 41.4363C30.4223 42.1532 31.5872 42.1532 32.3041 41.4363L37.5035 36.2388C38.2204 35.52 38.2204 34.357 37.5035 33.64C36.7847 32.9213 35.6217 32.9213 34.9029 33.64ZM77.635 3.9048C77.6479 4.05188 77.6571 4.22479 77.6497 4.37373C77.6165 5.21558 77.4146 6.29427 77.078 7.54418C75.3741 13.8887 70.2868 24.2495 63.4959 31.0409C59.0258 35.5111 54.8339 37.3541 50.4701 38.8101C50.4682 38.8101 42.7304 31.0723 42.7304 31.0723L42.7323 31.0704C44.1858 26.7074 46.0295 22.5147 50.4997 18.0446C57.2909 11.2533 67.6524 6.16592 73.9964 4.46247C75.2462 4.12586 76.325 3.924 77.1668 3.89078C77.3158 3.88339 77.4887 3.89263 77.6358 3.90555L77.635 3.9048ZM67.3938 14.146C66.4676 13.2199 65.1789 12.7583 63.72 12.8285C61.9834 12.9109 59.952 13.7897 58.2959 15.4457C56.6418 17.1017 55.7612 19.1324 55.6788 20.8697C55.6092 22.3269 56.0702 23.6173 56.9963 24.5435C57.9225 25.4696 59.2129 25.9311 60.6701 25.861C62.4066 25.7785 64.4381 24.8979 66.0941 23.2438C67.7502 21.5878 68.6289 19.5571 68.7113 17.8198C68.7808 16.3607 68.3199 15.0722 67.3938 14.146ZM44.4594 19.41L39.4508 18.6949L35.8982 22.2475L41.7775 23.7177C42.5147 22.2875 43.3855 20.8581 44.4593 19.4093L44.4594 19.41Z" fill="url(#paint0_linear_21_4361)"/>
<defs>
<linearGradient id="paint0_linear_21_4361" x1="12.4012" y1="-13.3517" x2="122.395" y2="22.401" gradientUnits="userSpaceOnUse">
<stop stop-color="#6E56FF"/>
<stop offset="1" stop-color="#B073FF"/>
</linearGradient>
</defs>
</svg>
