<svg width="34" height="33" viewBox="0 0 34 33" fill="none" xmlns="http://www.w3.org/2000/svg">
<path d="M14.167 11.6874V21.3124C14.167 21.8762 14.8329 22.2062 15.3004 21.8624L21.9162 17.0499C22.2987 16.7749 22.2987 16.2249 21.9162 15.9499L15.3004 11.1374C15.1951 11.0608 15.07 11.0142 14.939 11.0027C14.808 10.9912 14.6763 11.0154 14.5586 11.0725C14.4409 11.1296 14.342 11.2174 14.2728 11.326C14.2037 11.4346 14.167 11.5597 14.167 11.6874ZM15.5837 4.44118C15.5837 3.56118 14.7479 2.88743 13.8695 3.07993C12.2829 3.43743 10.7812 4.04243 9.44954 4.86743C8.6987 5.33493 8.58537 6.37993 9.22287 6.99868C9.6762 7.43868 10.3987 7.54868 10.937 7.21868C12.0279 6.54493 13.232 6.04993 14.5354 5.77493C15.1587 5.63743 15.5837 5.07368 15.5837 4.44118ZM7.22537 8.95118C6.5737 8.33243 5.5112 8.42868 5.02953 9.17118C4.17953 10.4637 3.5562 11.9212 3.18787 13.4612C2.98953 14.3137 3.66953 15.1249 4.5762 15.1249C5.2137 15.1249 5.8087 14.7124 5.9362 14.1074C6.21954 12.8562 6.7437 11.6737 7.4237 10.6287C7.79204 10.0924 7.6787 9.39118 7.22537 8.95118ZM4.5762 17.8749C3.66953 17.8749 2.97537 18.6862 3.1737 19.5387C3.54203 21.0787 4.16537 22.5224 5.01537 23.8287C5.49704 24.5712 6.5737 24.6674 7.2112 24.0487C7.66454 23.6087 7.77787 22.9074 7.4237 22.3849C6.72953 21.3399 6.21954 20.1712 5.9362 18.9062C5.8087 18.2874 5.22787 17.8749 4.5762 17.8749ZM9.44954 28.1187C10.7954 28.9437 12.2829 29.5487 13.8695 29.9062C14.7479 30.0987 15.5837 29.4249 15.5837 28.5587C15.5837 27.9399 15.1587 27.3624 14.5354 27.2387C13.2638 26.9618 12.0511 26.4733 10.9512 25.7949C10.6826 25.636 10.366 25.5712 10.0541 25.6112C9.74223 25.6513 9.45389 25.7937 9.23704 26.0149C9.08412 26.155 8.96628 26.3271 8.89254 26.5182C8.8188 26.7093 8.79113 26.9143 8.81164 27.1174C8.83216 27.3205 8.90031 27.5163 9.01088 27.6899C9.12146 27.8634 9.27151 28.0101 9.44954 28.1187ZM31.167 16.4999C31.167 23.0037 26.492 28.4762 20.2162 29.8924C19.3379 30.0987 18.4879 29.4249 18.4879 28.5449C18.4879 27.9124 18.927 27.3624 19.5504 27.2112C24.5795 26.0837 28.3337 21.7112 28.3337 16.4999C28.3337 11.2887 24.5795 6.91618 19.5504 5.78868C18.927 5.65118 18.4879 5.08743 18.4879 4.45493C18.4879 3.57493 19.3379 2.90118 20.2162 3.10743C26.492 4.52368 31.167 9.99618 31.167 16.4999Z" fill="#6A86EB"/>
</svg>
