<svg width="80" height="83" viewBox="0 0 80 83" fill="none" xmlns="http://www.w3.org/2000/svg">
<path fill-rule="evenodd" clip-rule="evenodd" d="M14.207 52.6003C13.1377 51.086 11.3735 50.0957 9.38108 50.0957H6.56727C3.30654 50.0957 0.660156 52.7439 0.660156 56.0028V77.0068C0.660156 80.2676 3.30654 82.9139 6.56727 82.9139H9.38108C11.9075 82.9139 14.0653 81.3231 14.9085 79.0902L19.2735 81.9494C20.234 82.5797 21.3607 82.9139 22.5106 82.9139H48.0563C48.4558 82.9139 48.8441 82.7939 49.1705 82.5671L76.863 63.553C76.9375 63.5015 77.0087 63.4449 77.0779 63.3835C80.0533 60.662 80.2207 56.0802 77.4518 53.1561C74.7698 50.3226 70.292 50.1023 67.3384 52.6129C67.3444 52.6089 42.2248 65.8485 42.2248 65.8485H30.6861C29.57 65.8485 28.6463 64.9783 28.6463 63.8793C28.6463 62.9279 29.5285 61.91 30.6861 61.91H40.0393C44.086 61.91 47.352 58.665 47.352 54.6915C47.352 50.716 44.0853 47.4712 40.0393 47.4712H23.858C21.4029 47.4712 17.3602 49.1372 14.2056 52.6004L14.207 52.6003ZM15.2882 74.6305L21.4313 78.6554C21.7523 78.8644 22.1262 78.9765 22.5105 78.9765H47.447C47.447 78.9765 74.51 60.3944 74.5151 60.3876C75.7677 59.1528 75.8125 57.1526 74.5915 55.865C73.3178 54.5181 71.1673 54.4436 69.7966 55.6955C69.6727 55.8096 69.5349 55.9065 69.3872 55.985L43.6305 69.5614C43.349 69.711 43.0339 69.7875 42.7128 69.7875H30.6876C27.3774 69.7875 24.7093 67.1332 24.7093 63.8804C24.7093 61.0607 27.2554 57.9733 30.6876 57.9733H40.0408C41.8934 57.9733 43.4156 56.5123 43.4156 54.6926C43.4156 52.871 41.8933 51.4101 40.0408 51.4101H23.8595C21.5711 51.4101 17.5858 53.6332 15.2883 57.8058V74.6312L15.2882 74.6305ZM42.0103 0.214355C30.0563 0.214355 20.3515 9.91957 20.3515 21.8732C20.3515 33.8268 30.0567 43.5321 42.0103 43.5321C53.964 43.5321 63.6692 33.8268 63.6692 21.8732C63.6692 9.91957 53.964 0.214355 42.0103 0.214355ZM42.0103 4.15221C51.7906 4.15221 59.7317 12.0932 59.7317 21.8735C59.7317 31.6539 51.7906 39.5949 42.0103 39.5949C32.23 39.5949 24.289 31.6539 24.289 21.8735C24.289 12.0932 32.23 4.15221 42.0103 4.15221ZM43.0223 8.37157C42.4 7.99578 41.62 7.99578 40.9984 8.37157L31.1534 14.2787C30.5587 14.6334 30.1961 15.2748 30.1961 15.9664V27.7807C30.1961 28.4716 30.5587 29.1137 31.1534 29.4684L40.9984 35.3755C41.6207 35.7513 42.4006 35.7513 43.0223 35.3755L52.8673 29.4684C53.4619 29.1137 53.8245 28.4722 53.8245 27.7807V15.9664C53.8245 15.2755 53.4619 14.6334 52.8673 14.2787L43.0223 8.37157Z" fill="url(#paint0_linear_21_4362)"/>
<defs>
<linearGradient id="paint0_linear_21_4362" x1="12.2885" y1="-13.3517" x2="119.954" y2="20.7356" gradientUnits="userSpaceOnUse">
<stop stop-color="#6E56FF"/>
<stop offset="1" stop-color="#B073FF"/>
</linearGradient>
</defs>
</svg>
