<svg width="51" height="24" viewBox="0 0 51 24" fill="none" xmlns="http://www.w3.org/2000/svg">
<path d="M19.4178 17.4725C18.7278 17.4725 18.1028 17.3525 17.5428 17.1125C16.9828 16.8625 16.5328 16.4825 16.1928 15.9725C15.8528 15.4625 15.6728 14.8225 15.6528 14.0525H17.5428C17.5528 14.5625 17.7178 14.9925 18.0378 15.3425C18.3678 15.6825 18.8278 15.8525 19.4178 15.8525C19.9778 15.8525 20.4078 15.6975 20.7078 15.3875C21.0078 15.0775 21.1578 14.6875 21.1578 14.2175C21.1578 13.6675 20.9578 13.2525 20.5578 12.9725C20.1678 12.6825 19.6628 12.5375 19.0428 12.5375H18.2628V10.9625H19.0578C19.5678 10.9625 19.9928 10.8425 20.3328 10.6025C20.6728 10.3625 20.8428 10.0075 20.8428 9.53748C20.8428 9.14748 20.7128 8.83748 20.4528 8.60748C20.2028 8.36748 19.8528 8.24748 19.4028 8.24748C18.9128 8.24748 18.5278 8.39248 18.2478 8.68248C17.9778 8.97248 17.8278 9.32748 17.7978 9.74748H15.9228C15.9628 8.77748 16.2978 8.01248 16.9278 7.45248C17.5678 6.89248 18.3928 6.61248 19.4028 6.61248C20.1228 6.61248 20.7278 6.74248 21.2178 7.00248C21.7178 7.25248 22.0928 7.58748 22.3428 8.00748C22.6028 8.42748 22.7328 8.89248 22.7328 9.40248C22.7328 9.99248 22.5678 10.4925 22.2378 10.9025C21.9178 11.3025 21.5178 11.5725 21.0378 11.7125C21.6278 11.8325 22.1078 12.1225 22.4778 12.5825C22.8478 13.0325 23.0328 13.6025 23.0328 14.2925C23.0328 14.8725 22.8928 15.4025 22.6128 15.8825C22.3328 16.3625 21.9228 16.7475 21.3828 17.0375C20.8528 17.3275 20.1978 17.4725 19.4178 17.4725ZM25.6984 17.3975C25.3484 17.3975 25.0584 17.2875 24.8284 17.0675C24.6084 16.8475 24.4984 16.5825 24.4984 16.2725C24.4984 15.9525 24.6084 15.6825 24.8284 15.4625C25.0584 15.2425 25.3484 15.1325 25.6984 15.1325C26.0484 15.1325 26.3334 15.2425 26.5534 15.4625C26.7834 15.6825 26.8984 15.9525 26.8984 16.2725C26.8984 16.5825 26.7834 16.8475 26.5534 17.0675C26.3334 17.2875 26.0484 17.3975 25.6984 17.3975ZM33.3219 17.2925V15.3425H28.1469V13.8125L33.0669 6.79248H35.2419V13.6775H36.6219V15.3425H35.2419V17.2925H33.3219ZM30.2019 13.6775H33.4419V8.90748L30.2019 13.6775ZM37.8763 17.2925V15.8975C38.5163 15.3675 39.1363 14.8425 39.7363 14.3225C40.3463 13.8025 40.8863 13.2875 41.3563 12.7775C41.8363 12.2675 42.2163 11.7725 42.4963 11.2925C42.7863 10.8025 42.9313 10.3275 42.9313 9.86748C42.9313 9.43748 42.8113 9.05748 42.5713 8.72748C42.3413 8.39748 41.9563 8.23248 41.4163 8.23248C40.8663 8.23248 40.4513 8.41248 40.1713 8.77248C39.8913 9.13248 39.7513 9.56748 39.7513 10.0775H37.8913C37.9113 9.30748 38.0813 8.66748 38.4013 8.15748C38.7213 7.63748 39.1463 7.25248 39.6763 7.00248C40.2063 6.74248 40.8013 6.61248 41.4613 6.61248C42.5313 6.61248 43.3613 6.90748 43.9513 7.49748C44.5513 8.07748 44.8513 8.83248 44.8513 9.76248C44.8513 10.3425 44.7163 10.9075 44.4463 11.4575C44.1863 12.0075 43.8413 12.5375 43.4113 13.0475C42.9813 13.5575 42.5163 14.0375 42.0163 14.4875C41.5163 14.9275 41.0313 15.3375 40.5613 15.7175H45.1063V17.2925H37.8763ZM47.8406 17.2925V8.98248L46.1156 9.38748V7.91748L48.6506 6.79248H49.8356V17.2925H47.8406Z" fill="white"/>
<g clip-path="url(#clip0_21_986)">
<path d="M9.54367 11.935L4.90813 14.6884L0.269531 11.935L4.90813 4.19727L9.54367 11.935ZM4.90813 15.5725L0.269531 12.8192L4.90813 19.388L9.54673 12.8192L4.90813 15.5725Z" fill="white"/>
</g>
<defs>
<clipPath id="clip0_21_986">
<rect width="9.76547" height="15.1907" fill="white" transform="translate(0.0253906 4.19727)"/>
</clipPath>
</defs>
</svg>
