<svg width="51" height="23" viewBox="0 0 51 23" fill="none" xmlns="http://www.w3.org/2000/svg">
<path d="M20.9867 16.543C20.3427 16.543 19.7594 16.431 19.2367 16.207C18.714 15.9737 18.294 15.619 17.9767 15.143C17.6594 14.667 17.4914 14.0697 17.4727 13.351H19.2367C19.246 13.827 19.4 14.2283 19.6987 14.555C20.0067 14.8723 20.436 15.031 20.9867 15.031C21.5094 15.031 21.9107 14.8863 22.1907 14.597C22.4707 14.3077 22.6107 13.9437 22.6107 13.505C22.6107 12.9917 22.424 12.6043 22.0507 12.343C21.6867 12.0723 21.2154 11.937 20.6367 11.937H19.9087V10.467H20.6507C21.1267 10.467 21.5234 10.355 21.8407 10.131C22.158 9.907 22.3167 9.57567 22.3167 9.137C22.3167 8.773 22.1954 8.48367 21.9527 8.269C21.7194 8.045 21.3927 7.933 20.9727 7.933C20.5154 7.933 20.156 8.06833 19.8947 8.339C19.6427 8.60967 19.5027 8.941 19.4747 9.333H17.7247C17.762 8.42767 18.0747 7.71367 18.6627 7.191C19.26 6.66833 20.03 6.407 20.9727 6.407C21.6447 6.407 22.2094 6.52833 22.6667 6.771C23.1334 7.00433 23.4834 7.317 23.7167 7.709C23.9594 8.101 24.0807 8.535 24.0807 9.011C24.0807 9.56167 23.9267 10.0283 23.6187 10.411C23.32 10.7843 22.9467 11.0363 22.4987 11.167C23.0494 11.279 23.4974 11.5497 23.8427 11.979C24.188 12.399 24.3607 12.931 24.3607 13.575C24.3607 14.1163 24.23 14.611 23.9687 15.059C23.7074 15.507 23.3247 15.8663 22.8207 16.137C22.326 16.4077 21.7147 16.543 20.9867 16.543ZM26.8486 16.473C26.5219 16.473 26.2512 16.3703 26.0366 16.165C25.8312 15.9597 25.7286 15.7123 25.7286 15.423C25.7286 15.1243 25.8312 14.8723 26.0366 14.667C26.2512 14.4617 26.5219 14.359 26.8486 14.359C27.1752 14.359 27.4412 14.4617 27.6466 14.667C27.8612 14.8723 27.9686 15.1243 27.9686 15.423C27.9686 15.7123 27.8612 15.9597 27.6466 16.165C27.4412 16.3703 27.1752 16.473 26.8486 16.473ZM33.9638 16.375V14.555H29.1338V13.127L33.7258 6.575H35.7558V13.001H37.0438V14.555H35.7558V16.375H33.9638ZM31.0518 13.001H34.0758V8.549L31.0518 13.001ZM38.2146 16.375V15.073C38.8119 14.5783 39.3906 14.0883 39.9506 13.603C40.5199 13.1177 41.0239 12.637 41.4626 12.161C41.9106 11.685 42.2653 11.223 42.5266 10.775C42.7973 10.3177 42.9326 9.87433 42.9326 9.445C42.9326 9.04367 42.8206 8.689 42.5966 8.381C42.3819 8.073 42.0226 7.919 41.5186 7.919C41.0053 7.919 40.6179 8.087 40.3566 8.423C40.0953 8.759 39.9646 9.165 39.9646 9.641H38.2286C38.2473 8.92233 38.4059 8.325 38.7046 7.849C39.0033 7.36367 39.3999 7.00433 39.8946 6.771C40.3893 6.52833 40.9446 6.407 41.5606 6.407C42.5593 6.407 43.3339 6.68233 43.8846 7.233C44.4446 7.77433 44.7246 8.479 44.7246 9.347C44.7246 9.88833 44.5986 10.4157 44.3466 10.929C44.1039 11.4423 43.7819 11.937 43.3806 12.413C42.9793 12.889 42.5453 13.337 42.0786 13.757C41.6119 14.1677 41.1593 14.5503 40.7206 14.905H44.9626V16.375H38.2146ZM47.5146 16.375V8.619L45.9046 8.997V7.625L48.2706 6.575H49.3766V16.375H47.5146Z" fill="white"/>
<g clip-path="url(#clip0_21_784)">
<path d="M9.97194 11.7484L5.44351 14.4381L0.912109 11.7484L5.44351 4.18945L9.97194 11.7484ZM5.44351 15.3018L0.912109 12.6121L5.44351 19.0291L9.97492 12.6121L5.44351 15.3018Z" fill="white"/>
</g>
<defs>
<clipPath id="clip0_21_784">
<rect width="9.5398" height="14.8397" fill="white" transform="translate(0.673828 4.18945)"/>
</clipPath>
</defs>
</svg>
