<svg width="52" height="24" viewBox="0 0 52 24" fill="none" xmlns="http://www.w3.org/2000/svg">
<path d="M20.1092 17.9114C19.4192 17.9114 18.7942 17.7914 18.2342 17.5514C17.6742 17.3014 17.2242 16.9214 16.8842 16.4114C16.5442 15.9014 16.3642 15.2614 16.3442 14.4914H18.2342C18.2442 15.0014 18.4092 15.4314 18.7292 15.7814C19.0592 16.1214 19.5192 16.2914 20.1092 16.2914C20.6692 16.2914 21.0992 16.1364 21.3992 15.8264C21.6992 15.5164 21.8492 15.1264 21.8492 14.6564C21.8492 14.1064 21.6492 13.6914 21.2492 13.4114C20.8592 13.1214 20.3542 12.9764 19.7342 12.9764H18.9542V11.4014H19.7492C20.2592 11.4014 20.6842 11.2814 21.0242 11.0414C21.3642 10.8014 21.5342 10.4464 21.5342 9.97645C21.5342 9.58644 21.4042 9.27644 21.1442 9.04644C20.8942 8.80644 20.5442 8.68644 20.0942 8.68644C19.6042 8.68644 19.2192 8.83144 18.9392 9.12145C18.6692 9.41145 18.5192 9.76645 18.4892 10.1864H16.6142C16.6542 9.21644 16.9892 8.45144 17.6192 7.89145C18.2592 7.33145 19.0842 7.05145 20.0942 7.05145C20.8142 7.05145 21.4192 7.18144 21.9092 7.44144C22.4092 7.69144 22.7842 8.02645 23.0342 8.44645C23.2942 8.86645 23.4242 9.33144 23.4242 9.84144C23.4242 10.4314 23.2592 10.9314 22.9292 11.3414C22.6092 11.7414 22.2092 12.0114 21.7292 12.1514C22.3192 12.2714 22.7992 12.5614 23.1692 13.0214C23.5392 13.4714 23.7242 14.0414 23.7242 14.7314C23.7242 15.3114 23.5842 15.8414 23.3042 16.3214C23.0242 16.8014 22.6142 17.1864 22.0742 17.4764C21.5442 17.7664 20.8892 17.9114 20.1092 17.9114ZM26.3898 17.8364C26.0398 17.8364 25.7498 17.7264 25.5198 17.5064C25.2998 17.2864 25.1898 17.0214 25.1898 16.7114C25.1898 16.3914 25.2998 16.1214 25.5198 15.9014C25.7498 15.6814 26.0398 15.5714 26.3898 15.5714C26.7398 15.5714 27.0248 15.6814 27.2448 15.9014C27.4748 16.1214 27.5898 16.3914 27.5898 16.7114C27.5898 17.0214 27.4748 17.2864 27.2448 17.5064C27.0248 17.7264 26.7398 17.8364 26.3898 17.8364ZM34.0133 17.7314V15.7814H28.8383V14.2514L33.7583 7.23144H35.9333V14.1164H37.3133V15.7814H35.9333V17.7314H34.0133ZM30.8933 14.1164H34.1333V9.34645L30.8933 14.1164ZM38.5677 17.7314V16.3364C39.2077 15.8064 39.8277 15.2814 40.4277 14.7614C41.0377 14.2414 41.5777 13.7264 42.0477 13.2164C42.5277 12.7064 42.9077 12.2114 43.1877 11.7314C43.4777 11.2414 43.6227 10.7664 43.6227 10.3064C43.6227 9.87644 43.5027 9.49644 43.2627 9.16644C43.0327 8.83644 42.6477 8.67144 42.1077 8.67144C41.5577 8.67144 41.1427 8.85144 40.8627 9.21145C40.5827 9.57145 40.4427 10.0064 40.4427 10.5164H38.5827C38.6027 9.74644 38.7727 9.10644 39.0927 8.59644C39.4127 8.07645 39.8377 7.69144 40.3677 7.44144C40.8977 7.18144 41.4927 7.05145 42.1527 7.05145C43.2227 7.05145 44.0527 7.34644 44.6427 7.93644C45.2427 8.51644 45.5427 9.27144 45.5427 10.2014C45.5427 10.7814 45.4077 11.3464 45.1377 11.8964C44.8777 12.4464 44.5327 12.9764 44.1027 13.4864C43.6727 13.9964 43.2077 14.4764 42.7077 14.9264C42.2077 15.3664 41.7227 15.7764 41.2527 16.1564H45.7977V17.7314H38.5677ZM48.532 17.7314V9.42145L46.807 9.82645V8.35645L49.342 7.23144H50.527V17.7314H48.532Z" fill="white"/>
<g clip-path="url(#clip0_21_723)">
<path d="M10.2351 12.3735L5.59953 15.1268L0.960938 12.3735L5.59953 4.63574L10.2351 12.3735ZM5.59953 16.011L0.960938 13.2577L5.59953 19.8265L10.2381 13.2577L5.59953 16.011Z" fill="white"/>
</g>
<defs>
<clipPath id="clip0_21_723">
<rect width="9.76547" height="15.1907" fill="white" transform="translate(0.716797 4.63574)"/>
</clipPath>
</defs>
</svg>
