<svg width="88" height="35" viewBox="0 0 88 35" fill="none" xmlns="http://www.w3.org/2000/svg">
<path d="M34.816 27.2085C33.6373 27.2085 32.5627 27.0005 31.592 26.5845C30.6387 26.1512 29.876 25.5012 29.304 24.6345C28.732 23.7678 28.4287 22.6845 28.394 21.3845H31.124C31.1587 22.3552 31.488 23.1785 32.112 23.8545C32.7533 24.5132 33.6547 24.8425 34.816 24.8425C35.9253 24.8425 36.7747 24.5392 37.364 23.9325C37.9533 23.3085 38.248 22.5372 38.248 21.6185C38.248 20.5092 37.8493 19.6858 37.052 19.1485C36.272 18.6112 35.31 18.3425 34.166 18.3425H32.814V16.0545H34.192C35.2147 16.0545 36.038 15.8118 36.662 15.3265C37.3033 14.8412 37.624 14.1565 37.624 13.2725C37.624 12.5272 37.3727 11.9205 36.87 11.4525C36.3847 10.9845 35.6913 10.7505 34.79 10.7505C33.854 10.7505 33.1173 11.0278 32.58 11.5825C32.0427 12.1198 31.748 12.7958 31.696 13.6105H28.966C29.0007 12.5532 29.2607 11.6345 29.746 10.8545C30.2487 10.0745 30.9333 9.46782 31.8 9.03448C32.6667 8.60115 33.6633 8.38448 34.79 8.38448C36.0033 8.38448 37.0173 8.60115 37.832 9.03448C38.664 9.45048 39.288 10.0225 39.704 10.7505C40.1373 11.4611 40.354 12.2412 40.354 13.0905C40.354 14.0612 40.0853 14.9105 39.548 15.6385C39.0107 16.3665 38.2913 16.8518 37.39 17.0945C38.43 17.3198 39.288 17.8312 39.964 18.6285C40.64 19.4085 40.978 20.4225 40.978 21.6705C40.978 22.6758 40.744 23.6032 40.276 24.4525C39.808 25.2845 39.1147 25.9518 38.196 26.4545C37.2773 26.9572 36.1507 27.2085 34.816 27.2085ZM45.3667 27.0525C44.8467 27.0525 44.4134 26.8878 44.0667 26.5585C43.7374 26.2118 43.5727 25.8045 43.5727 25.3365C43.5727 24.8512 43.7374 24.4438 44.0667 24.1145C44.4134 23.7678 44.8467 23.5945 45.3667 23.5945C45.8867 23.5945 46.3114 23.7678 46.6407 24.1145C46.97 24.4438 47.1347 24.8512 47.1347 25.3365C47.1347 25.8045 46.97 26.2118 46.6407 26.5585C46.3114 26.8878 45.8867 27.0525 45.3667 27.0525ZM58.3094 26.8965V23.2565H49.1834V21.0725L57.8674 8.69648H61.0394V20.8645H63.5874V23.2565H61.0394V26.8965H58.3094ZM52.1734 20.8645H58.4654V11.7385L52.1734 20.8645ZM65.8507 26.8965V24.9205C67.0293 23.9845 68.156 23.0398 69.2307 22.0865C70.3053 21.1332 71.2587 20.1972 72.0907 19.2785C72.94 18.3425 73.6073 17.4325 74.0927 16.5485C74.578 15.6472 74.8207 14.7805 74.8207 13.9485C74.8207 13.3938 74.7253 12.8738 74.5347 12.3885C74.344 11.8858 74.032 11.4872 73.5987 11.1925C73.1653 10.8805 72.5847 10.7245 71.8567 10.7245C70.7647 10.7245 69.9413 11.0712 69.3867 11.7645C68.8493 12.4578 68.5893 13.2898 68.6067 14.2605H65.9287C65.946 12.9778 66.2147 11.9032 66.7347 11.0365C67.272 10.1698 67.9827 9.51115 68.8667 9.06048C69.768 8.60982 70.782 8.38448 71.9087 8.38448C73.6247 8.38448 74.994 8.86982 76.0167 9.84048C77.0567 10.7938 77.5767 12.1285 77.5767 13.8445C77.5767 14.8672 77.3253 15.8812 76.8227 16.8865C76.3373 17.8918 75.696 18.8625 74.8987 19.7985C74.1187 20.7172 73.278 21.5838 72.3767 22.3985C71.4753 23.2132 70.6173 23.9498 69.8027 24.6085H78.1227V26.8965H65.8507ZM82.9656 26.8965V11.8165L80.0276 12.4925V10.4645L84.0576 8.69648H85.8256V26.8965H82.9656Z" fill="white"/>
<g clip-path="url(#clip0_21_3517)">
<path d="M14.2289 18.2098L7.33548 22.3042L0.4375 18.2098L7.33548 6.70312L14.2289 18.2098ZM7.33548 23.619L0.4375 19.5246L7.33548 29.293L14.2335 19.5246L7.33548 23.619Z" fill="white"/>
</g>
<defs>
<clipPath id="clip0_21_3517">
<rect width="14.5221" height="22.5899" fill="white" transform="translate(0.0742188 6.70312)"/>
</clipPath>
</defs>
</svg>
