<svg width="37" height="36" viewBox="0 0 37 36" fill="none" xmlns="http://www.w3.org/2000/svg">
<rect x="0.816406" y="0.788086" width="35.2959" height="34.6874" rx="17.3437" fill="#6B6B6B"/>
<path d="M22.8184 25.2694C21.9736 26.0884 21.0511 25.9591 20.1631 25.5711C19.2234 25.1746 18.3613 25.1573 17.3699 25.5711C16.1284 26.1056 15.4732 25.9505 14.7318 25.2694C10.5247 20.933 11.1454 14.3292 15.9215 14.0878C17.0854 14.1481 17.8958 14.7257 18.5768 14.7775C19.5941 14.5706 20.5683 13.9757 21.6546 14.0533C22.9564 14.1567 23.9392 14.674 24.5858 15.6051C21.896 17.2173 22.5339 20.7605 24.9996 21.752C24.5082 23.0451 23.8702 24.3297 22.8098 25.278L22.8184 25.2694ZM18.4906 14.0361C18.3613 12.1135 19.9217 10.5273 21.7149 10.3721C21.9649 12.5963 19.6976 14.2516 18.4906 14.0361Z" fill="white"/>
</svg>
