<svg width="307" height="69" viewBox="0 0 307 69" fill="none" xmlns="http://www.w3.org/2000/svg">
<path d="M23.5202 40.3037V29.8037H30.0152V30.8387H24.7802V34.4987H29.5652V35.5187H24.7802V39.2687H30.0152V40.3037H23.5202ZM31.912 40.3037V32.8637H33.052L33.127 34.1987C33.367 33.7287 33.712 33.3587 34.162 33.0887C34.612 32.8187 35.122 32.6837 35.692 32.6837C36.572 32.6837 37.272 32.9537 37.792 33.4937C38.322 34.0237 38.587 34.8437 38.587 35.9537V40.3037H37.327V36.0887C37.327 34.5387 36.687 33.7637 35.407 33.7637C34.767 33.7637 34.232 33.9987 33.802 34.4687C33.382 34.9287 33.172 35.5887 33.172 36.4487V40.3037H31.912ZM43.4359 40.3037C42.7559 40.3037 42.2209 40.1387 41.8309 39.8087C41.4409 39.4787 41.2459 38.8837 41.2459 38.0237V33.9287H39.9559V32.8637H41.2459L41.4109 31.0787H42.5059V32.8637H44.6959V33.9287H42.5059V38.0237C42.5059 38.4937 42.6009 38.8137 42.7909 38.9837C42.9809 39.1437 43.3159 39.2237 43.7959 39.2237H44.5759V40.3037H43.4359ZM49.4366 40.4837C48.7266 40.4837 48.0966 40.3237 47.5466 40.0037C46.9966 39.6737 46.5616 39.2187 46.2416 38.6387C45.9316 38.0587 45.7766 37.3737 45.7766 36.5837C45.7766 35.8037 45.9316 35.1237 46.2416 34.5437C46.5516 33.9537 46.9816 33.4987 47.5316 33.1787C48.0916 32.8487 48.7366 32.6837 49.4666 32.6837C50.1866 32.6837 50.8066 32.8487 51.3266 33.1787C51.8566 33.4987 52.2616 33.9237 52.5416 34.4537C52.8216 34.9837 52.9616 35.5537 52.9616 36.1637C52.9616 36.2737 52.9566 36.3837 52.9466 36.4937C52.9466 36.6037 52.9466 36.7287 52.9466 36.8687H47.0216C47.0516 37.4387 47.1816 37.9137 47.4116 38.2937C47.6516 38.6637 47.9466 38.9437 48.2966 39.1337C48.6566 39.3237 49.0366 39.4187 49.4366 39.4187C49.9566 39.4187 50.3916 39.2987 50.7416 39.0587C51.0916 38.8187 51.3466 38.4937 51.5066 38.0837H52.7516C52.5516 38.7737 52.1666 39.3487 51.5966 39.8087C51.0366 40.2587 50.3166 40.4837 49.4366 40.4837ZM49.4366 33.7487C48.8366 33.7487 48.3016 33.9337 47.8316 34.3037C47.3716 34.6637 47.1066 35.1937 47.0366 35.8937H51.7166C51.6866 35.2237 51.4566 34.6987 51.0266 34.3187C50.5966 33.9387 50.0666 33.7487 49.4366 33.7487ZM54.6317 40.3037V32.8637H55.7717L55.8767 34.2887C56.1067 33.7987 56.4567 33.4087 56.9267 33.1187C57.3967 32.8287 57.9767 32.6837 58.6667 32.6837V34.0037H58.3217C57.8817 34.0037 57.4767 34.0837 57.1067 34.2437C56.7367 34.3937 56.4417 34.6537 56.2217 35.0237C56.0017 35.3937 55.8917 35.9037 55.8917 36.5537V40.3037H54.6317ZM64.8606 43.6037L66.7056 39.5837H66.2706L63.3156 32.8637H64.6806L67.1406 38.6537L69.7506 32.8637H71.0556L66.1806 43.6037H64.8606ZM75.0725 40.4837C74.3725 40.4837 73.7425 40.3237 73.1825 40.0037C72.6225 39.6837 72.1775 39.2337 71.8475 38.6537C71.5275 38.0637 71.3675 37.3737 71.3675 36.5837C71.3675 35.7937 71.5325 35.1087 71.8625 34.5287C72.1925 33.9387 72.6375 33.4837 73.1975 33.1637C73.7675 32.8437 74.4025 32.6837 75.1025 32.6837C75.8025 32.6837 76.4325 32.8437 76.9925 33.1637C77.5525 33.4837 77.9925 33.9387 78.3125 34.5287C78.6425 35.1087 78.8075 35.7937 78.8075 36.5837C78.8075 37.3737 78.6425 38.0637 78.3125 38.6537C77.9825 39.2337 77.5325 39.6837 76.9625 40.0037C76.4025 40.3237 75.7725 40.4837 75.0725 40.4837ZM75.0725 39.4037C75.5025 39.4037 75.9025 39.2987 76.2725 39.0887C76.6425 38.8787 76.9425 38.5637 77.1725 38.1437C77.4025 37.7237 77.5175 37.2037 77.5175 36.5837C77.5175 35.9637 77.4025 35.4437 77.1725 35.0237C76.9525 34.6037 76.6575 34.2887 76.2875 34.0787C75.9175 33.8687 75.5225 33.7637 75.1025 33.7637C74.6725 33.7637 74.2725 33.8687 73.9025 34.0787C73.5325 34.2887 73.2325 34.6037 73.0025 35.0237C72.7725 35.4437 72.6575 35.9637 72.6575 36.5837C72.6575 37.2037 72.7725 37.7237 73.0025 38.1437C73.2325 38.5637 73.5275 38.8787 73.8875 39.0887C74.2575 39.2987 74.6525 39.4037 75.0725 39.4037ZM83.2744 40.4837C82.3944 40.4837 81.6944 40.2187 81.1744 39.6887C80.6544 39.1487 80.3944 38.3237 80.3944 37.2137V32.8637H81.6544V37.0787C81.6544 38.6287 82.2894 39.4037 83.5594 39.4037C84.2094 39.4037 84.7444 39.1737 85.1644 38.7137C85.5944 38.2437 85.8094 37.5787 85.8094 36.7187V32.8637H87.0694V40.3037H85.9294L85.8394 38.9687C85.6094 39.4387 85.2644 39.8087 84.8044 40.0787C84.3544 40.3487 83.8444 40.4837 83.2744 40.4837ZM89.1434 40.3037V32.8637H90.2834L90.3884 34.2887C90.6184 33.7987 90.9684 33.4087 91.4384 33.1187C91.9084 32.8287 92.4884 32.6837 93.1784 32.6837V34.0037H92.8334C92.3934 34.0037 91.9884 34.0837 91.6184 34.2437C91.2484 34.3937 90.9534 34.6537 90.7334 35.0237C90.5134 35.3937 90.4034 35.9037 90.4034 36.5537V40.3037H89.1434ZM101.907 40.4837C101.197 40.4837 100.567 40.3237 100.017 40.0037C99.4673 39.6737 99.0323 39.2187 98.7123 38.6387C98.4023 38.0587 98.2473 37.3737 98.2473 36.5837C98.2473 35.8037 98.4023 35.1237 98.7123 34.5437C99.0223 33.9537 99.4523 33.4987 100.002 33.1787C100.562 32.8487 101.207 32.6837 101.937 32.6837C102.657 32.6837 103.277 32.8487 103.797 33.1787C104.327 33.4987 104.732 33.9237 105.012 34.4537C105.292 34.9837 105.432 35.5537 105.432 36.1637C105.432 36.2737 105.427 36.3837 105.417 36.4937C105.417 36.6037 105.417 36.7287 105.417 36.8687H99.4923C99.5223 37.4387 99.6523 37.9137 99.8823 38.2937C100.122 38.6637 100.417 38.9437 100.767 39.1337C101.127 39.3237 101.507 39.4187 101.907 39.4187C102.427 39.4187 102.862 39.2987 103.212 39.0587C103.562 38.8187 103.817 38.4937 103.977 38.0837H105.222C105.022 38.7737 104.637 39.3487 104.067 39.8087C103.507 40.2587 102.787 40.4837 101.907 40.4837ZM101.907 33.7487C101.307 33.7487 100.772 33.9337 100.302 34.3037C99.8423 34.6637 99.5773 35.1937 99.5073 35.8937H104.187C104.157 35.2237 103.927 34.6987 103.497 34.3187C103.067 33.9387 102.537 33.7487 101.907 33.7487ZM107.102 40.3037V32.8637H108.242L108.332 33.9437C108.572 33.5437 108.892 33.2337 109.292 33.0137C109.692 32.7937 110.142 32.6837 110.642 32.6837C111.232 32.6837 111.737 32.8037 112.157 33.0437C112.587 33.2837 112.917 33.6487 113.147 34.1387C113.407 33.6887 113.762 33.3337 114.212 33.0737C114.672 32.8137 115.167 32.6837 115.697 32.6837C116.587 32.6837 117.297 32.9537 117.827 33.4937C118.357 34.0237 118.622 34.8437 118.622 35.9537V40.3037H117.377V36.0887C117.377 35.3187 117.222 34.7387 116.912 34.3487C116.602 33.9587 116.157 33.7637 115.577 33.7637C114.977 33.7637 114.477 33.9987 114.077 34.4687C113.687 34.9287 113.492 35.5887 113.492 36.4487V40.3037H112.232V36.0887C112.232 35.3187 112.077 34.7387 111.767 34.3487C111.457 33.9587 111.012 33.7637 110.432 33.7637C109.842 33.7637 109.347 33.9987 108.947 34.4687C108.557 34.9287 108.362 35.5887 108.362 36.4487V40.3037H107.102ZM122.995 40.4837C122.375 40.4837 121.86 40.3787 121.45 40.1687C121.04 39.9587 120.735 39.6787 120.535 39.3287C120.335 38.9787 120.235 38.5987 120.235 38.1887C120.235 37.4287 120.525 36.8437 121.105 36.4337C121.685 36.0237 122.475 35.8187 123.475 35.8187H125.485V35.7287C125.485 35.0787 125.315 34.5887 124.975 34.2587C124.635 33.9187 124.18 33.7487 123.61 33.7487C123.12 33.7487 122.695 33.8737 122.335 34.1237C121.985 34.3637 121.765 34.7187 121.675 35.1887H120.385C120.435 34.6487 120.615 34.1937 120.925 33.8237C121.245 33.4537 121.64 33.1737 122.11 32.9837C122.58 32.7837 123.08 32.6837 123.61 32.6837C124.65 32.6837 125.43 32.9637 125.95 33.5237C126.48 34.0737 126.745 34.8087 126.745 35.7287V40.3037H125.62L125.545 38.9687C125.335 39.3887 125.025 39.7487 124.615 40.0487C124.215 40.3387 123.675 40.4837 122.995 40.4837ZM123.19 39.4187C123.67 39.4187 124.08 39.2937 124.42 39.0437C124.77 38.7937 125.035 38.4687 125.215 38.0687C125.395 37.6687 125.485 37.2487 125.485 36.8087V36.7937H123.58C122.84 36.7937 122.315 36.9237 122.005 37.1837C121.705 37.4337 121.555 37.7487 121.555 38.1287C121.555 38.5187 121.695 38.8337 121.975 39.0737C122.265 39.3037 122.67 39.4187 123.19 39.4187ZM129.401 31.2137C129.151 31.2137 128.941 31.1337 128.771 30.9737C128.611 30.8037 128.531 30.5937 128.531 30.3437C128.531 30.1037 128.611 29.9037 128.771 29.7437C128.941 29.5837 129.151 29.5037 129.401 29.5037C129.641 29.5037 129.846 29.5837 130.016 29.7437C130.186 29.9037 130.271 30.1037 130.271 30.3437C130.271 30.5937 130.186 30.8037 130.016 30.9737C129.846 31.1337 129.641 31.2137 129.401 31.2137ZM128.771 40.3037V32.8637H130.031V40.3037H128.771ZM132.224 40.3037V29.5037H133.484V40.3037H132.224ZM141.994 40.4837C141.374 40.4837 140.859 40.3787 140.449 40.1687C140.039 39.9587 139.734 39.6787 139.534 39.3287C139.334 38.9787 139.234 38.5987 139.234 38.1887C139.234 37.4287 139.524 36.8437 140.104 36.4337C140.684 36.0237 141.474 35.8187 142.474 35.8187H144.484V35.7287C144.484 35.0787 144.314 34.5887 143.974 34.2587C143.634 33.9187 143.179 33.7487 142.609 33.7487C142.119 33.7487 141.694 33.8737 141.334 34.1237C140.984 34.3637 140.764 34.7187 140.674 35.1887H139.384C139.434 34.6487 139.614 34.1937 139.924 33.8237C140.244 33.4537 140.639 33.1737 141.109 32.9837C141.579 32.7837 142.079 32.6837 142.609 32.6837C143.649 32.6837 144.429 32.9637 144.949 33.5237C145.479 34.0737 145.744 34.8087 145.744 35.7287V40.3037H144.619L144.544 38.9687C144.334 39.3887 144.024 39.7487 143.614 40.0487C143.214 40.3387 142.674 40.4837 141.994 40.4837ZM142.189 39.4187C142.669 39.4187 143.079 39.2937 143.419 39.0437C143.769 38.7937 144.034 38.4687 144.214 38.0687C144.394 37.6687 144.484 37.2487 144.484 36.8087V36.7937H142.579C141.839 36.7937 141.314 36.9237 141.004 37.1837C140.704 37.4337 140.554 37.7487 140.554 38.1287C140.554 38.5187 140.694 38.8337 140.974 39.0737C141.264 39.3037 141.669 39.4187 142.189 39.4187ZM151.01 40.4837C150.27 40.4837 149.62 40.3137 149.06 39.9737C148.51 39.6337 148.08 39.1687 147.77 38.5787C147.47 37.9887 147.32 37.3187 147.32 36.5687C147.32 35.8187 147.475 35.1537 147.785 34.5737C148.095 33.9837 148.525 33.5237 149.075 33.1937C149.625 32.8537 150.275 32.6837 151.025 32.6837C151.635 32.6837 152.175 32.8087 152.645 33.0587C153.115 33.3087 153.48 33.6587 153.74 34.1087V29.5037H155V40.3037H153.86L153.74 39.0737C153.5 39.4337 153.155 39.7587 152.705 40.0487C152.255 40.3387 151.69 40.4837 151.01 40.4837ZM151.145 39.3887C151.645 39.3887 152.085 39.2737 152.465 39.0437C152.855 38.8037 153.155 38.4737 153.365 38.0537C153.585 37.6337 153.695 37.1437 153.695 36.5837C153.695 36.0237 153.585 35.5337 153.365 35.1137C153.155 34.6937 152.855 34.3687 152.465 34.1387C152.085 33.8987 151.645 33.7787 151.145 33.7787C150.655 33.7787 150.215 33.8987 149.825 34.1387C149.445 34.3687 149.145 34.6937 148.925 35.1137C148.715 35.5337 148.61 36.0237 148.61 36.5837C148.61 37.1437 148.715 37.6337 148.925 38.0537C149.145 38.4737 149.445 38.8037 149.825 39.0437C150.215 39.2737 150.655 39.3887 151.145 39.3887ZM160.429 40.4837C159.689 40.4837 159.039 40.3137 158.479 39.9737C157.929 39.6337 157.499 39.1687 157.189 38.5787C156.889 37.9887 156.739 37.3187 156.739 36.5687C156.739 35.8187 156.894 35.1537 157.204 34.5737C157.514 33.9837 157.944 33.5237 158.494 33.1937C159.044 32.8537 159.694 32.6837 160.444 32.6837C161.054 32.6837 161.594 32.8087 162.064 33.0587C162.534 33.3087 162.899 33.6587 163.159 34.1087V29.5037H164.419V40.3037H163.279L163.159 39.0737C162.919 39.4337 162.574 39.7587 162.124 40.0487C161.674 40.3387 161.109 40.4837 160.429 40.4837ZM160.564 39.3887C161.064 39.3887 161.504 39.2737 161.884 39.0437C162.274 38.8037 162.574 38.4737 162.784 38.0537C163.004 37.6337 163.114 37.1437 163.114 36.5837C163.114 36.0237 163.004 35.5337 162.784 35.1137C162.574 34.6937 162.274 34.3687 161.884 34.1387C161.504 33.8987 161.064 33.7787 160.564 33.7787C160.074 33.7787 159.634 33.8987 159.244 34.1387C158.864 34.3687 158.564 34.6937 158.344 35.1137C158.134 35.5337 158.029 36.0237 158.029 36.5837C158.029 37.1437 158.134 37.6337 158.344 38.0537C158.564 38.4737 158.864 38.8037 159.244 39.0437C159.634 39.2737 160.074 39.3887 160.564 39.3887ZM166.473 40.3037V32.8637H167.613L167.718 34.2887C167.948 33.7987 168.298 33.4087 168.768 33.1187C169.238 32.8287 169.818 32.6837 170.508 32.6837V34.0037H170.163C169.723 34.0037 169.318 34.0837 168.948 34.2437C168.578 34.3937 168.283 34.6537 168.063 35.0237C167.843 35.3937 167.733 35.9037 167.733 36.5537V40.3037H166.473ZM174.988 40.4837C174.278 40.4837 173.648 40.3237 173.098 40.0037C172.548 39.6737 172.113 39.2187 171.793 38.6387C171.483 38.0587 171.328 37.3737 171.328 36.5837C171.328 35.8037 171.483 35.1237 171.793 34.5437C172.103 33.9537 172.533 33.4987 173.083 33.1787C173.643 32.8487 174.288 32.6837 175.018 32.6837C175.738 32.6837 176.358 32.8487 176.878 33.1787C177.408 33.4987 177.813 33.9237 178.093 34.4537C178.373 34.9837 178.513 35.5537 178.513 36.1637C178.513 36.2737 178.508 36.3837 178.498 36.4937C178.498 36.6037 178.498 36.7287 178.498 36.8687H172.573C172.603 37.4387 172.733 37.9137 172.963 38.2937C173.203 38.6637 173.498 38.9437 173.848 39.1337C174.208 39.3237 174.588 39.4187 174.988 39.4187C175.508 39.4187 175.943 39.2987 176.293 39.0587C176.643 38.8187 176.898 38.4937 177.058 38.0837H178.303C178.103 38.7737 177.718 39.3487 177.148 39.8087C176.588 40.2587 175.868 40.4837 174.988 40.4837ZM174.988 33.7487C174.388 33.7487 173.853 33.9337 173.383 34.3037C172.923 34.6637 172.658 35.1937 172.588 35.8937H177.268C177.238 35.2237 177.008 34.6987 176.578 34.3187C176.148 33.9387 175.618 33.7487 174.988 33.7487ZM183.033 40.4837C182.143 40.4837 181.403 40.2587 180.813 39.8087C180.223 39.3587 179.878 38.7487 179.778 37.9787H181.068C181.148 38.3687 181.353 38.7087 181.683 38.9987C182.023 39.2787 182.478 39.4187 183.048 39.4187C183.578 39.4187 183.968 39.3087 184.218 39.0887C184.468 38.8587 184.593 38.5887 184.593 38.2787C184.593 37.8287 184.428 37.5287 184.098 37.3787C183.778 37.2287 183.323 37.0937 182.733 36.9737C182.333 36.8937 181.933 36.7787 181.533 36.6287C181.133 36.4787 180.798 36.2687 180.528 35.9987C180.258 35.7187 180.123 35.3537 180.123 34.9037C180.123 34.2537 180.363 33.7237 180.843 33.3137C181.333 32.8937 181.993 32.6837 182.823 32.6837C183.613 32.6837 184.258 32.8837 184.758 33.2837C185.268 33.6737 185.563 34.2337 185.643 34.9637H184.398C184.348 34.5837 184.183 34.2887 183.903 34.0787C183.633 33.8587 183.268 33.7487 182.808 33.7487C182.358 33.7487 182.008 33.8437 181.758 34.0337C181.518 34.2237 181.398 34.4737 181.398 34.7837C181.398 35.0837 181.553 35.3187 181.863 35.4887C182.183 35.6587 182.613 35.8037 183.153 35.9237C183.613 36.0237 184.048 36.1487 184.458 36.2987C184.878 36.4387 185.218 36.6537 185.478 36.9437C185.748 37.2237 185.883 37.6337 185.883 38.1737C185.893 38.8437 185.638 39.3987 185.118 39.8387C184.608 40.2687 183.913 40.4837 183.033 40.4837ZM190.533 40.4837C189.643 40.4837 188.903 40.2587 188.313 39.8087C187.723 39.3587 187.378 38.7487 187.278 37.9787H188.568C188.648 38.3687 188.853 38.7087 189.183 38.9987C189.523 39.2787 189.978 39.4187 190.548 39.4187C191.078 39.4187 191.468 39.3087 191.718 39.0887C191.968 38.8587 192.093 38.5887 192.093 38.2787C192.093 37.8287 191.928 37.5287 191.598 37.3787C191.278 37.2287 190.823 37.0937 190.233 36.9737C189.833 36.8937 189.433 36.7787 189.033 36.6287C188.633 36.4787 188.298 36.2687 188.028 35.9987C187.758 35.7187 187.623 35.3537 187.623 34.9037C187.623 34.2537 187.863 33.7237 188.343 33.3137C188.833 32.8937 189.493 32.6837 190.323 32.6837C191.113 32.6837 191.758 32.8837 192.258 33.2837C192.768 33.6737 193.063 34.2337 193.143 34.9637H191.898C191.848 34.5837 191.683 34.2887 191.403 34.0787C191.133 33.8587 190.768 33.7487 190.308 33.7487C189.858 33.7487 189.508 33.8437 189.258 34.0337C189.018 34.2237 188.898 34.4737 188.898 34.7837C188.898 35.0837 189.053 35.3187 189.363 35.4887C189.683 35.6587 190.113 35.8037 190.653 35.9237C191.113 36.0237 191.548 36.1487 191.958 36.2987C192.378 36.4387 192.718 36.6537 192.978 36.9437C193.248 37.2237 193.383 37.6337 193.383 38.1737C193.393 38.8437 193.138 39.3987 192.618 39.8387C192.108 40.2687 191.413 40.4837 190.533 40.4837Z" fill="#A6A6A6"/>
<rect x="0.885332" y="1.27889" width="305.05" height="67.0496" rx="33.5248" stroke="white" stroke-width="0.950352"/>
</svg>
