<svg width="15" height="15" viewBox="0 0 15 15" fill="none" xmlns="http://www.w3.org/2000/svg">
<path d="M13.0075 1.13379H1.10325C0.906933 1.13525 0.719069 1.21388 0.580246 1.35271C0.441423 1.49153 0.362788 1.67939 0.361328 1.87571V13.78C0.362788 13.9763 0.441423 14.1642 0.580246 14.303C0.719069 14.4418 0.906933 14.5204 1.10325 14.5219H7.51281V9.34517H5.77236V7.32022H7.51281V5.83079C7.51281 4.10149 8.56713 3.15874 10.1179 3.15874C10.6367 3.15874 11.1555 3.15874 11.6743 3.23684V5.03866H10.6088C9.76648 5.03866 9.60471 5.4403 9.60471 6.02603V7.31464H11.6129L11.3507 9.33959H9.60471V14.5219H13.0075C13.2038 14.5204 13.3917 14.4418 13.5305 14.303C13.6694 14.1642 13.748 13.9763 13.7494 13.78V1.87571C13.748 1.67939 13.6694 1.49153 13.5305 1.35271C13.3917 1.21388 13.2038 1.13525 13.0075 1.13379Z" fill="white"/>
</svg>
