<svg width="37" height="36" viewBox="0 0 37 36" fill="none" xmlns="http://www.w3.org/2000/svg">
<rect x="0.615234" y="0.788086" width="35.9045" height="34.6874" rx="17.3437" fill="#6B6B6B"/>
<path d="M12.3714 14.8679C12.9199 13.7757 13.7614 12.8575 14.8017 12.216C15.8421 11.5745 17.0403 11.235 18.2626 11.2354C20.0393 11.2354 21.5318 11.888 22.673 12.9527L20.7829 14.8435C20.0993 14.1902 19.2304 13.8572 18.2626 13.8572C16.5452 13.8572 15.0915 15.0175 14.574 16.5754C14.4421 16.9709 14.367 17.3929 14.367 17.828C14.367 18.2631 14.4421 18.685 14.574 19.0806C15.0922 20.6391 16.5452 21.7987 18.2626 21.7987C19.1493 21.7987 19.9041 21.5647 20.4948 21.1691C20.8373 20.9437 21.1304 20.6511 21.3566 20.3091C21.5828 19.9671 21.7373 19.5828 21.8107 19.1795H18.2626V16.6294H24.4715C24.5493 17.0606 24.5915 17.5102 24.5915 17.9776C24.5915 19.9858 23.8729 21.6761 22.6256 22.8232C21.5351 23.8306 20.0426 24.4206 18.2626 24.4206C17.3967 24.421 16.5393 24.2507 15.7393 23.9195C14.9392 23.5883 14.2123 23.1027 13.6001 22.4905C12.9878 21.8782 12.5022 21.1513 12.1711 20.3513C11.8399 19.5513 11.6696 18.6938 11.6699 17.828C11.6699 16.7639 11.9244 15.7579 12.3714 14.8679Z" fill="white"/>
</svg>
