<svg width="36" height="36" viewBox="0 0 36 36" fill="none" xmlns="http://www.w3.org/2000/svg">
<rect x="0.519531" y="0.788086" width="35.2959" height="34.6874" rx="17.3437" fill="#6B6B6B"/>
<path d="M26.6542 13.2644C26.0294 13.5484 25.356 13.735 24.6582 13.8243C25.3722 13.3942 25.9239 12.7127 26.1836 11.8931C25.5101 12.2988 24.7636 12.5828 23.9766 12.7451C23.3356 12.0473 22.4349 11.6416 21.4125 11.6416C19.5058 11.6416 17.9479 13.1995 17.9479 15.1225C17.9479 15.3984 17.9803 15.6662 18.0371 15.9177C15.1485 15.7716 12.5764 14.3841 10.8643 12.2826C10.5641 12.7938 10.3937 13.3942 10.3937 14.0271C10.3937 15.2361 11.0023 16.3072 11.9435 16.9157C11.3674 16.9157 10.8319 16.7534 10.3613 16.51V16.5343C10.3613 18.2221 11.5621 19.6339 13.1525 19.9503C12.6419 20.0901 12.1059 20.1095 11.5865 20.0071C11.8069 20.6988 12.2385 21.3041 12.8206 21.7378C13.4028 22.1715 14.1062 22.4119 14.8321 22.4251C13.6017 23.3992 12.0766 23.9257 10.5073 23.9181C10.2314 23.9181 9.95556 23.9019 9.67969 23.8694C11.2213 24.8593 13.0551 25.4354 15.0187 25.4354C21.4125 25.4354 24.9259 20.1289 24.9259 15.5282C24.9259 15.374 24.9259 15.228 24.9178 15.0738C25.5994 14.587 26.1836 13.9703 26.6542 13.2644Z" fill="white"/>
</svg>
